<?xml version="1.0" standalone="no"?>
<!DOCTYPE svg PUBLIC "-//W3C//DTD SVG 20010904//EN"
 "http://www.w3.org/TR/2001/REC-SVG-20010904/DTD/svg10.dtd">
<svg version="1.0" xmlns="http://www.w3.org/2000/svg"
 width="320.000000pt" height="320.000000pt" viewBox="0 0 320.000000 320.000000"
 preserveAspectRatio="xMidYMid meet">
<metadata>
Created by potrace 1.14, written by Peter Selinger 2001-2017
</metadata>
<g transform="translate(0.000000,320.000000) scale(0.100000,-0.100000)"
fill="#000000" stroke="none">
<path d="M992 2629 c-59 -17 -72 -54 -72 -206 l0 -133 599 0 c537 0 599 2 605
16 3 9 6 45 6 80 0 102 35 165 113 206 21 10 37 24 34 31 -5 15 -1234 21
-1285 6z"/>
<path d="M920 1935 l0 -175 258 0 c331 0 384 -14 503 -127 103 -98 153 -244
131 -379 -20 -124 -100 -245 -204 -310 -82 -52 -144 -64 -332 -64 l-174 0 -26
31 c-25 30 -26 35 -26 165 0 74 2 134 5 134 3 0 28 -16 56 -35 82 -56 167 -60
239 -10 110 77 106 248 -8 326 -49 33 -176 34 -238 2 -90 -48 -153 -147 -173
-273 -6 -36 -11 -189 -11 -340 0 -255 1 -277 20 -307 32 -53 61 -56 465 -50
328 4 367 6 439 26 404 109 656 503 582 911 -58 317 -303 569 -618 635 -54 12
-157 15 -479 15 l-409 0 0 -175z"/>
</g>
</svg>
